<?xml version="1.0" encoding="UTF-8"?>
<svg width="72px" height="72px" viewBox="0 0 72 72" version="1.1" xmlns="http://www.w3.org/2000/svg" xmlns:xlink="http://www.w3.org/1999/xlink">
    <title>Webloc Divers</title>
    <g id="Webloc-Divers" stroke="none" stroke-width="1" fill="none" fill-rule="evenodd">
        <g id="Group-Copy-2" transform="translate(21.000000, 6.000000)">
            <g id="basic_world" stroke="#FFFFFF" stroke-width="2">
                <path d="M14.584219,0 C22.639219,0 29.1684377,6.52921875 29.167969,14.5842187 C29.1684377,22.6396875 22.6387502,29.169375 14.5837502,29.1684375 C6.52828148,29.1689062 -0.000468522902,22.6396875 0,14.5846875 C-0.0014060229,6.52921875 6.52828148,0 14.584219,0 Z" id="Path"></path>
                <line x1="14.5837502" y1="0.05296875" x2="14.5837502" y2="29.1154687" id="Path"></line>
                <line x1="29.1150002" y1="14.5842187" x2="0.0525002271" y2="14.5842187" id="Path"></line>
                <path d="M13.6462502,0.05296875 C13.6462502,0.05296875 7.08375023,5.20921875 7.08375023,14.5842187 C7.08375023,23.9592187 13.6462502,29.1154687 13.6462502,29.1154687" id="Path"></path>
                <path d="M15.5212502,0.05296875 C15.5212502,0.05296875 22.0837502,5.20921875 22.0837502,14.5842187 C22.0837502,23.9592187 15.5212502,29.1154687 15.5212502,29.1154687" id="Path"></path>
                <path d="M3.33375023,5.20921875 C3.33375023,5.20921875 5.67750023,9.89671875 14.5837502,9.89671875 C23.4900002,9.89671875 25.8337502,5.20921875 25.8337502,5.20921875" id="Path"></path>
                <path d="M3.33375023,23.9592187 C3.33375023,23.9592187 5.67750023,19.2717187 14.5837502,19.2717187 C23.4900002,19.2717187 25.8337502,23.9592187 25.8337502,23.9592187" id="Path"></path>
            </g>
            <g id="arrow-up" transform="translate(5.000000, 20.000000)" fill="#949494" fill-rule="nonzero" stroke="#D1D1D1" stroke-width="0.5">
                <path d="M9.5,0 L0.557147143,9.10004833 C-0.185715714,9.85596907 -0.185715714,11.0778154 0.557147143,11.8337361 C1.30001,12.5896568 2.50074996,12.5896568 3.24361282,11.8337361 L7.600095,7.40067666 L7.600095,22.0666989 C7.600095,23.1338811 8.44935253,24 9.5,24 C10.5506475,24 11.399905,23.1338811 11.399905,22.0666989 L11.399905,7.40067666 L15.7563872,11.8337361 C16.1268687,12.2107298 16.6132443,12.4001933 17.09962,12.4001933 C17.5859957,12.4001933 18.0723714,12.2107298 18.4428529,11.8337361 C19.1857157,11.0778154 19.1857157,9.85596907 18.4428529,9.10004833 L9.5,0 Z" id="Shape" transform="translate(9.500000, 12.000000) rotate(180.000000) translate(-9.500000, -12.000000) "></path>
            </g>
        </g>
        <text id="Divers" font-family="Lato-Bold, Lato" font-size="8" font-weight="bold" fill="#FFFFFF">
            <tspan x="24.444" y="63">Divers</tspan>
        </text>
    </g>
</svg>